<svg xmlns="http://www.w3.org/2000/svg" version="1.1" xmlns:xlink="http://www.w3.org/1999/xlink" xmlns:svgjs="http://svgjs.dev/svgjs" width="1000" height="474" viewBox="0 0 1000 474"><g transform="matrix(1,0,0,1,-0.6060606060606233,0.20170212765955853)"><svg viewBox="0 0 396 188" data-background-color="#ffffff" preserveAspectRatio="xMidYMid meet" height="474" width="1000" xmlns="http://www.w3.org/2000/svg" xmlns:xlink="http://www.w3.org/1999/xlink"><g id="tight-bounds" transform="matrix(1,0,0,1,0.2400000000000091,-0.0799999999999983)"><svg viewBox="0 0 395.52 188.16" height="188.16" width="395.52"><g><svg viewBox="0 0 395.52 188.16" height="188.16" width="395.52"><g><svg viewBox="0 0 395.52 188.16" height="188.16" width="395.52"><g id="textblocktransform"><svg viewBox="0 0 395.52 188.16" height="188.16" width="395.52" id="textblock"><g><svg viewBox="0 0 395.52 188.16" height="188.16" width="395.52"><g transform="matrix(1,0,0,1,0,0)"><svg width="395.52" viewBox="4.5 -24.5 51.5 24.5" height="188.16" data-palette-color="#457136"><path d="M25.5-24.5L25.5 0 21.5 0 21.5-10.5 8.5-10.5 8.5 0 4.5 0 4.5-24.5 8.5-24.5 8.5-11 11.5-14 21.5-14 21.5-24.5 25.5-24.5ZM49-6.95L56 0 50.9 0 40.5-10.5 51.5-10.5 51.5-21 38.5-21 38.5 0 34.5 0 34.5-17.55 38-21 34.5-21 34.5-24.5 52-24.5Q53.4-24.5 54.45-23.45 55.5-22.4 55.5-21L55.5-21 55.5-11.5Q55.5-7.5 52-7.5L52-7.5 49-7.5 49-6.95Z" opacity="1" transform="matrix(1,0,0,1,0,0)" fill="#457136" class="undefined-text-0" data-fill-palette-color="primary" id="text-0"></path></svg></g></svg></g></svg></g></svg></g><g></g></svg></g><defs></defs></svg><rect width="395.52" height="188.16" fill="none" stroke="none" visibility="hidden"></rect></g></svg></g></svg>